<?xml version="1.0" encoding="UTF-8" standalone="no"?>
<!-- Created with Inkscape (http://www.inkscape.org/) -->

<svg
   xmlns:dc="http://purl.org/dc/elements/1.1/"
   xmlns:cc="http://creativecommons.org/ns#"
   xmlns:rdf="http://www.w3.org/1999/02/22-rdf-syntax-ns#"
   xmlns:svg="http://www.w3.org/2000/svg"
   xmlns="http://www.w3.org/2000/svg"
   xmlns:sodipodi="http://sodipodi.sourceforge.net/DTD/sodipodi-0.dtd"
   xmlns:inkscape="http://www.inkscape.org/namespaces/inkscape"
   width="184.45161mm"
   height="109.4736mm"
   viewBox="0 0 653.56871 387.89859"
   id="svg2"
   version="1.1"
   inkscape:version="0.91 r13725"
   sodipodi:docname="potential_neu.svg">
  <defs
     id="defs4">
    <marker
       inkscape:stockid="Arrow1Lstart"
       orient="auto"
       refY="0"
       refX="0"
       id="Arrow1Lstart"
       style="overflow:visible"
       inkscape:isstock="true">
      <path
         id="path4282"
         d="M 0,0 5,-5 -12.5,0 5,5 0,0 Z"
         style="fill:#000000;fill-opacity:1;fill-rule:evenodd;stroke:#000000;stroke-width:1pt;stroke-opacity:1"
         transform="matrix(0.8,0,0,0.8,10,0)"
         inkscape:connector-curvature="0" />
    </marker>
    <marker
       inkscape:stockid="Arrow2Mstart"
       orient="auto"
       refY="0"
       refX="0"
       id="Arrow2Mstart"
       style="overflow:visible"
       inkscape:isstock="true">
      <path
         id="path4306"
         style="fill-rule:evenodd;stroke-width:0.625;stroke-linejoin:round"
         d="M 8.7185878,4.0337352 -2.2072895,0.01601326 8.7185884,-4.0017078 c -1.7454984,2.3720609 -1.7354408,5.6174519 -6e-7,8.035443 z"
         transform="scale(0.6,0.6)"
         inkscape:connector-curvature="0" />
    </marker>
    <marker
       inkscape:stockid="Arrow2Mend"
       orient="auto"
       refY="0"
       refX="0"
       id="marker13932"
       style="overflow:visible"
       inkscape:isstock="true">
      <path
         id="path13934"
         style="fill:#000000;fill-opacity:1;fill-rule:evenodd;stroke:#000000;stroke-width:0.625;stroke-linejoin:round;stroke-opacity:1"
         d="M 8.7185878,4.0337352 -2.2072895,0.01601326 8.7185884,-4.0017078 c -1.7454984,2.3720609 -1.7354408,5.6174519 -6e-7,8.035443 z"
         transform="scale(-0.6,-0.6)"
         inkscape:connector-curvature="0" />
    </marker>
    <marker
       inkscape:stockid="Arrow2Mend"
       orient="auto"
       refY="0"
       refX="0"
       id="marker13922"
       style="overflow:visible"
       inkscape:isstock="true">
      <path
         id="path13924"
         style="fill:#009c00;fill-opacity:1;fill-rule:evenodd;stroke:#009c00;stroke-width:0.625;stroke-linejoin:round;stroke-opacity:1"
         d="M 8.7185878,4.0337352 -2.2072895,0.01601326 8.7185884,-4.0017078 c -1.7454984,2.3720609 -1.7354408,5.6174519 -6e-7,8.035443 z"
         transform="scale(-0.6,-0.6)"
         inkscape:connector-curvature="0" />
    </marker>
    <marker
       inkscape:isstock="true"
       style="overflow:visible"
       id="marker13636"
       refX="0"
       refY="0"
       orient="auto"
       inkscape:stockid="Arrow1Send">
      <path
         transform="matrix(-0.2,0,0,-0.2,-1.2,0)"
         style="fill:#000000;fill-opacity:1;fill-rule:evenodd;stroke:#000000;stroke-width:1pt;stroke-opacity:1"
         d="M 0,0 5,-5 -12.5,0 5,5 0,0 Z"
         id="path13638"
         inkscape:connector-curvature="0" />
    </marker>
    <marker
       inkscape:isstock="true"
       style="overflow:visible"
       id="marker13626"
       refX="0"
       refY="0"
       orient="auto"
       inkscape:stockid="Arrow1Send">
      <path
         transform="matrix(-0.2,0,0,-0.2,-1.2,0)"
         style="fill:#000000;fill-opacity:1;fill-rule:evenodd;stroke:#000000;stroke-width:1pt;stroke-opacity:1"
         d="M 0,0 5,-5 -12.5,0 5,5 0,0 Z"
         id="path13628"
         inkscape:connector-curvature="0" />
    </marker>
    <marker
       inkscape:isstock="true"
       style="overflow:visible"
       id="marker13346"
       refX="0"
       refY="0"
       orient="auto"
       inkscape:stockid="Arrow1Mend">
      <path
         transform="matrix(-0.4,0,0,-0.4,-4,0)"
         style="fill:#000000;fill-opacity:1;fill-rule:evenodd;stroke:#000000;stroke-width:1pt;stroke-opacity:1"
         d="M 0,0 5,-5 -12.5,0 5,5 0,0 Z"
         id="path13348"
         inkscape:connector-curvature="0" />
    </marker>
    <marker
       inkscape:isstock="true"
       style="overflow:visible"
       id="marker13090"
       refX="0"
       refY="0"
       orient="auto"
       inkscape:stockid="Arrow1Mend">
      <path
         transform="matrix(-0.4,0,0,-0.4,-4,0)"
         style="fill:#000000;fill-opacity:1;fill-rule:evenodd;stroke:#000000;stroke-width:1pt;stroke-opacity:1"
         d="M 0,0 5,-5 -12.5,0 5,5 0,0 Z"
         id="path13092"
         inkscape:connector-curvature="0" />
    </marker>
    <marker
       inkscape:stockid="Arrow2Mstart"
       orient="auto"
       refY="0"
       refX="0"
       id="marker12822"
       style="overflow:visible"
       inkscape:isstock="true">
      <path
         id="path12824"
         style="fill:#000000;fill-opacity:1;fill-rule:evenodd;stroke:#000000;stroke-width:0.625;stroke-linejoin:round;stroke-opacity:1"
         d="M 8.7185878,4.0337352 -2.2072895,0.01601326 8.7185884,-4.0017078 c -1.7454984,2.3720609 -1.7354408,5.6174519 -6e-7,8.035443 z"
         transform="scale(0.6,0.6)"
         inkscape:connector-curvature="0" />
    </marker>
    <marker
       inkscape:stockid="Arrow2Mstart"
       orient="auto"
       refY="0"
       refX="0"
       id="marker12578"
       style="overflow:visible"
       inkscape:isstock="true">
      <path
         id="path12580"
         style="fill:#000000;fill-opacity:1;fill-rule:evenodd;stroke:#000000;stroke-width:0.625;stroke-linejoin:round;stroke-opacity:1"
         d="M 8.7185878,4.0337352 -2.2072895,0.01601326 8.7185884,-4.0017078 c -1.7454984,2.3720609 -1.7354408,5.6174519 -6e-7,8.035443 z"
         transform="scale(0.6,0.6)"
         inkscape:connector-curvature="0" />
    </marker>
    <marker
       inkscape:stockid="Arrow2Mstart"
       orient="auto"
       refY="0"
       refX="0"
       id="marker12340"
       style="overflow:visible"
       inkscape:isstock="true">
      <path
         id="path12342"
         style="fill:#000000;fill-opacity:1;fill-rule:evenodd;stroke:#000000;stroke-width:0.625;stroke-linejoin:round;stroke-opacity:1"
         d="M 8.7185878,4.0337352 -2.2072895,0.01601326 8.7185884,-4.0017078 c -1.7454984,2.3720609 -1.7354408,5.6174519 -6e-7,8.035443 z"
         transform="scale(0.6,0.6)"
         inkscape:connector-curvature="0" />
    </marker>
    <marker
       inkscape:stockid="Arrow2Mstart"
       orient="auto"
       refY="0"
       refX="0"
       id="marker11868"
       style="overflow:visible"
       inkscape:isstock="true">
      <path
         id="path11870"
         style="fill:#000000;fill-opacity:1;fill-rule:evenodd;stroke:#000000;stroke-width:0.625;stroke-linejoin:round;stroke-opacity:1"
         d="M 8.7185878,4.0337352 -2.2072895,0.01601326 8.7185884,-4.0017078 c -1.7454984,2.3720609 -1.7354408,5.6174519 -6e-7,8.035443 z"
         transform="scale(0.6,0.6)"
         inkscape:connector-curvature="0" />
    </marker>
    <marker
       inkscape:stockid="Arrow2Mstart"
       orient="auto"
       refY="0"
       refX="0"
       id="marker11636"
       style="overflow:visible"
       inkscape:isstock="true">
      <path
         id="path11638"
         style="fill:#000000;fill-opacity:1;fill-rule:evenodd;stroke:#000000;stroke-width:0.625;stroke-linejoin:round;stroke-opacity:1"
         d="M 8.7185878,4.0337352 -2.2072895,0.01601326 8.7185884,-4.0017078 c -1.7454984,2.3720609 -1.7354408,5.6174519 -6e-7,8.035443 z"
         transform="scale(0.6,0.6)"
         inkscape:connector-curvature="0" />
    </marker>
    <marker
       inkscape:isstock="true"
       style="overflow:visible"
       id="marker11170"
       refX="0"
       refY="0"
       orient="auto"
       inkscape:stockid="Arrow2Mstart">
      <path
         transform="scale(0.6,0.6)"
         d="M 8.7185878,4.0337352 -2.2072895,0.01601326 8.7185884,-4.0017078 c -1.7454984,2.3720609 -1.7354408,5.6174519 -6e-7,8.035443 z"
         style="fill:#000000;fill-opacity:1;fill-rule:evenodd;stroke:#000000;stroke-width:0.625;stroke-linejoin:round;stroke-opacity:1"
         id="path11172"
         inkscape:connector-curvature="0" />
    </marker>
    <marker
       inkscape:stockid="Arrow2Mstart"
       orient="auto"
       refY="0"
       refX="0"
       id="marker10460"
       style="overflow:visible"
       inkscape:isstock="true">
      <path
         id="path10462"
         style="fill:#000000;fill-opacity:1;fill-rule:evenodd;stroke:#000000;stroke-width:0.625;stroke-linejoin:round;stroke-opacity:1"
         d="M 8.7185878,4.0337352 -2.2072895,0.01601326 8.7185884,-4.0017078 c -1.7454984,2.3720609 -1.7354408,5.6174519 -6e-7,8.035443 z"
         transform="scale(0.6,0.6)"
         inkscape:connector-curvature="0" />
    </marker>
    <marker
       inkscape:isstock="true"
       style="overflow:visible"
       id="marker9990"
       refX="0"
       refY="0"
       orient="auto"
       inkscape:stockid="Arrow2Mstart"
       inkscape:collect="always">
      <path
         transform="scale(0.6,0.6)"
         d="M 8.7185878,4.0337352 -2.2072895,0.01601326 8.7185884,-4.0017078 c -1.7454984,2.3720609 -1.7354408,5.6174519 -6e-7,8.035443 z"
         style="fill:#009c00;fill-opacity:1;fill-rule:evenodd;stroke:#009c00;stroke-width:0.625;stroke-linejoin:round;stroke-opacity:1"
         id="path9992"
         inkscape:connector-curvature="0" />
    </marker>
    <marker
       inkscape:isstock="true"
       style="overflow:visible"
       id="marker9782"
       refX="0"
       refY="0"
       orient="auto"
       inkscape:stockid="Arrow2Mstart"
       inkscape:collect="always">
      <path
         transform="scale(0.6,0.6)"
         d="M 8.7185878,4.0337352 -2.2072895,0.01601326 8.7185884,-4.0017078 c -1.7454984,2.3720609 -1.7354408,5.6174519 -6e-7,8.035443 z"
         style="fill:#009c00;fill-opacity:1;fill-rule:evenodd;stroke:#009c00;stroke-width:0.625;stroke-linejoin:round;stroke-opacity:1"
         id="path9784"
         inkscape:connector-curvature="0" />
    </marker>
    <marker
       inkscape:isstock="true"
       style="overflow:visible"
       id="marker9678"
       refX="0"
       refY="0"
       orient="auto"
       inkscape:stockid="Arrow2Mstart">
      <path
         transform="scale(0.6,0.6)"
         d="M 8.7185878,4.0337352 -2.2072895,0.01601326 8.7185884,-4.0017078 c -1.7454984,2.3720609 -1.7354408,5.6174519 -6e-7,8.035443 z"
         style="fill:#ff0000;fill-opacity:1;fill-rule:evenodd;stroke:#ff0000;stroke-width:0.625;stroke-linejoin:round;stroke-opacity:1"
         id="path9680"
         inkscape:connector-curvature="0" />
    </marker>
    <marker
       inkscape:isstock="true"
       style="overflow:visible"
       id="marker8714"
       refX="0"
       refY="0"
       orient="auto"
       inkscape:stockid="Arrow2Lstart">
      <path
         transform="matrix(1.1,0,0,1.1,1.1,0)"
         d="M 8.7185878,4.0337352 -2.2072895,0.01601326 8.7185884,-4.0017078 c -1.7454984,2.3720609 -1.7354408,5.6174519 -6e-7,8.035443 z"
         style="fill:#000000;fill-opacity:1;fill-rule:evenodd;stroke:#000000;stroke-width:0.625;stroke-linejoin:round;stroke-opacity:1"
         id="path8716"
         inkscape:connector-curvature="0" />
    </marker>
    <marker
       inkscape:isstock="true"
       style="overflow:visible"
       id="marker8704"
       refX="0"
       refY="0"
       orient="auto"
       inkscape:stockid="Arrow2Lstart">
      <path
         transform="matrix(1.1,0,0,1.1,1.1,0)"
         d="M 8.7185878,4.0337352 -2.2072895,0.01601326 8.7185884,-4.0017078 c -1.7454984,2.3720609 -1.7354408,5.6174519 -6e-7,8.035443 z"
         style="fill:#000000;fill-opacity:1;fill-rule:evenodd;stroke:#000000;stroke-width:0.625;stroke-linejoin:round;stroke-opacity:1"
         id="path8706"
         inkscape:connector-curvature="0" />
    </marker>
    <marker
       inkscape:stockid="Arrow1Mend"
       orient="auto"
       refY="0"
       refX="0"
       id="marker8142"
       style="overflow:visible"
       inkscape:isstock="true">
      <path
         id="path8144"
         d="M 0,0 5,-5 -12.5,0 5,5 0,0 Z"
         style="fill:#000000;fill-opacity:1;fill-rule:evenodd;stroke:#000000;stroke-width:1pt;stroke-opacity:1"
         transform="matrix(-0.4,0,0,-0.4,-4,0)"
         inkscape:connector-curvature="0" />
    </marker>
    <marker
       inkscape:isstock="true"
       style="overflow:visible"
       id="marker7952"
       refX="0"
       refY="0"
       orient="auto"
       inkscape:stockid="Arrow2Mend">
      <path
         transform="scale(-0.6,-0.6)"
         d="M 8.7185878,4.0337352 -2.2072895,0.01601326 8.7185884,-4.0017078 c -1.7454984,2.3720609 -1.7354408,5.6174519 -6e-7,8.035443 z"
         style="fill:#000000;fill-opacity:1;fill-rule:evenodd;stroke:#000000;stroke-width:0.625;stroke-linejoin:round;stroke-opacity:1"
         id="path7954"
         inkscape:connector-curvature="0" />
    </marker>
    <marker
       inkscape:isstock="true"
       style="overflow:visible"
       id="marker7942"
       refX="0"
       refY="0"
       orient="auto"
       inkscape:stockid="Arrow2Mend"
       inkscape:collect="always">
      <path
         transform="scale(-0.6,-0.6)"
         d="M 8.7185878,4.0337352 -2.2072895,0.01601326 8.7185884,-4.0017078 c -1.7454984,2.3720609 -1.7354408,5.6174519 -6e-7,8.035443 z"
         style="fill:#009c00;fill-opacity:1;fill-rule:evenodd;stroke:#009c00;stroke-width:0.625;stroke-linejoin:round;stroke-opacity:1"
         id="path7944"
         inkscape:connector-curvature="0" />
    </marker>
    <marker
       inkscape:isstock="true"
       style="overflow:visible"
       id="marker7606"
       refX="0"
       refY="0"
       orient="auto"
       inkscape:stockid="Arrow2Lend">
      <path
         transform="matrix(-1.1,0,0,-1.1,-1.1,0)"
         d="M 8.7185878,4.0337352 -2.2072895,0.01601326 8.7185884,-4.0017078 c -1.7454984,2.3720609 -1.7354408,5.6174519 -6e-7,8.035443 z"
         style="fill:#000000;fill-opacity:1;fill-rule:evenodd;stroke:#000000;stroke-width:0.625;stroke-linejoin:round;stroke-opacity:1"
         id="path7608"
         inkscape:connector-curvature="0" />
    </marker>
    <marker
       inkscape:isstock="true"
       style="overflow:visible"
       id="marker7596"
       refX="0"
       refY="0"
       orient="auto"
       inkscape:stockid="Arrow2Lend">
      <path
         transform="matrix(-1.1,0,0,-1.1,-1.1,0)"
         d="M 8.7185878,4.0337352 -2.2072895,0.01601326 8.7185884,-4.0017078 c -1.7454984,2.3720609 -1.7354408,5.6174519 -6e-7,8.035443 z"
         style="fill:#000000;fill-opacity:1;fill-rule:evenodd;stroke:#000000;stroke-width:0.625;stroke-linejoin:round;stroke-opacity:1"
         id="path7598"
         inkscape:connector-curvature="0" />
    </marker>
    <marker
       inkscape:stockid="Arrow1Send"
       orient="auto"
       refY="0"
       refX="0"
       id="marker6962"
       style="overflow:visible"
       inkscape:isstock="true">
      <path
         id="path6964"
         d="M 0,0 5,-5 -12.5,0 5,5 0,0 Z"
         style="fill:#000000;fill-opacity:1;fill-rule:evenodd;stroke:#000000;stroke-width:1pt;stroke-opacity:1"
         transform="matrix(-0.2,0,0,-0.2,-1.2,0)"
         inkscape:connector-curvature="0" />
    </marker>
    <marker
       inkscape:isstock="true"
       style="overflow:visible"
       id="marker6784"
       refX="0"
       refY="0"
       orient="auto"
       inkscape:stockid="Arrow1Lend">
      <path
         transform="matrix(-0.8,0,0,-0.8,-10,0)"
         style="fill:#000000;fill-opacity:1;fill-rule:evenodd;stroke:#000000;stroke-width:1pt;stroke-opacity:1"
         d="M 0,0 5,-5 -12.5,0 5,5 0,0 Z"
         id="path6786"
         inkscape:connector-curvature="0" />
    </marker>
    <marker
       inkscape:isstock="true"
       style="overflow:visible"
       id="marker6768"
       refX="0"
       refY="0"
       orient="auto"
       inkscape:stockid="Arrow1Lend">
      <path
         transform="matrix(-0.8,0,0,-0.8,-10,0)"
         style="fill:#000000;fill-opacity:1;fill-rule:evenodd;stroke:#000000;stroke-width:1pt;stroke-opacity:1"
         d="M 0,0 5,-5 -12.5,0 5,5 0,0 Z"
         id="path6770"
         inkscape:connector-curvature="0" />
    </marker>
    <marker
       inkscape:isstock="true"
       style="overflow:visible"
       id="marker6462"
       refX="0"
       refY="0"
       orient="auto"
       inkscape:stockid="Arrow1Mend">
      <path
         transform="matrix(-0.4,0,0,-0.4,-4,0)"
         style="fill:#000000;fill-opacity:1;fill-rule:evenodd;stroke:#000000;stroke-width:1pt;stroke-opacity:1"
         d="M 0,0 5,-5 -12.5,0 5,5 0,0 Z"
         id="path6464"
         inkscape:connector-curvature="0" />
    </marker>
    <marker
       inkscape:stockid="Arrow1Send"
       orient="auto"
       refY="0"
       refX="0"
       id="marker6164"
       style="overflow:visible"
       inkscape:isstock="true">
      <path
         id="path6166"
         d="M 0,0 5,-5 -12.5,0 5,5 0,0 Z"
         style="fill:#000000;fill-opacity:1;fill-rule:evenodd;stroke:#000000;stroke-width:1pt;stroke-opacity:1"
         transform="matrix(-0.2,0,0,-0.2,-1.2,0)"
         inkscape:connector-curvature="0" />
    </marker>
    <marker
       inkscape:stockid="Arrow1Send"
       orient="auto"
       refY="0"
       refX="0"
       id="marker6040"
       style="overflow:visible"
       inkscape:isstock="true">
      <path
         id="path6042"
         d="M 0,0 5,-5 -12.5,0 5,5 0,0 Z"
         style="fill:#000000;fill-opacity:1;fill-rule:evenodd;stroke:#000000;stroke-width:1pt;stroke-opacity:1"
         transform="matrix(-0.2,0,0,-0.2,-1.2,0)"
         inkscape:connector-curvature="0" />
    </marker>
    <marker
       inkscape:isstock="true"
       style="overflow:visible"
       id="marker5904"
       refX="0"
       refY="0"
       orient="auto"
       inkscape:stockid="Arrow1Send">
      <path
         transform="matrix(-0.2,0,0,-0.2,-1.2,0)"
         style="fill:#000000;fill-opacity:1;fill-rule:evenodd;stroke:#000000;stroke-width:1pt;stroke-opacity:1"
         d="M 0,0 5,-5 -12.5,0 5,5 0,0 Z"
         id="path5906"
         inkscape:connector-curvature="0" />
    </marker>
    <marker
       inkscape:isstock="true"
       style="overflow:visible"
       id="marker5786"
       refX="0"
       refY="0"
       orient="auto"
       inkscape:stockid="Arrow1Send">
      <path
         transform="matrix(-0.2,0,0,-0.2,-1.2,0)"
         style="fill:#000000;fill-opacity:1;fill-rule:evenodd;stroke:#000000;stroke-width:1pt;stroke-opacity:1"
         d="M 0,0 5,-5 -12.5,0 5,5 0,0 Z"
         id="path5788"
         inkscape:connector-curvature="0" />
    </marker>
    <marker
       inkscape:isstock="true"
       style="overflow:visible"
       id="marker5562"
       refX="0"
       refY="0"
       orient="auto"
       inkscape:stockid="Arrow1Send">
      <path
         transform="matrix(-0.2,0,0,-0.2,-1.2,0)"
         style="fill:#000000;fill-opacity:1;fill-rule:evenodd;stroke:#000000;stroke-width:1pt;stroke-opacity:1"
         d="M 0,0 5,-5 -12.5,0 5,5 0,0 Z"
         id="path5564"
         inkscape:connector-curvature="0" />
    </marker>
    <marker
       inkscape:stockid="Arrow1Send"
       orient="auto"
       refY="0"
       refX="0"
       id="marker5360"
       style="overflow:visible"
       inkscape:isstock="true">
      <path
         id="path5362"
         d="M 0,0 5,-5 -12.5,0 5,5 0,0 Z"
         style="fill:#000000;fill-opacity:1;fill-rule:evenodd;stroke:#000000;stroke-width:1pt;stroke-opacity:1"
         transform="matrix(-0.2,0,0,-0.2,-1.2,0)"
         inkscape:connector-curvature="0" />
    </marker>
    <marker
       inkscape:stockid="Arrow1Send"
       orient="auto"
       refY="0"
       refX="0"
       id="marker5162"
       style="overflow:visible"
       inkscape:isstock="true">
      <path
         id="path5164"
         d="M 0,0 5,-5 -12.5,0 5,5 0,0 Z"
         style="fill:#000000;fill-opacity:1;fill-rule:evenodd;stroke:#000000;stroke-width:1pt;stroke-opacity:1"
         transform="matrix(-0.2,0,0,-0.2,-1.2,0)"
         inkscape:connector-curvature="0" />
    </marker>
    <marker
       inkscape:stockid="Arrow1Send"
       orient="auto"
       refY="0"
       refX="0"
       id="marker5080"
       style="overflow:visible"
       inkscape:isstock="true">
      <path
         id="path5082"
         d="M 0,0 5,-5 -12.5,0 5,5 0,0 Z"
         style="fill:#000000;fill-opacity:1;fill-rule:evenodd;stroke:#000000;stroke-width:1pt;stroke-opacity:1"
         transform="matrix(-0.2,0,0,-0.2,-1.2,0)"
         inkscape:connector-curvature="0" />
    </marker>
    <marker
       inkscape:isstock="true"
       style="overflow:visible"
       id="marker4992"
       refX="0"
       refY="0"
       orient="auto"
       inkscape:stockid="Arrow1Send">
      <path
         transform="matrix(-0.2,0,0,-0.2,-1.2,0)"
         style="fill:#000000;fill-opacity:1;fill-rule:evenodd;stroke:#000000;stroke-width:1pt;stroke-opacity:1"
         d="M 0,0 5,-5 -12.5,0 5,5 0,0 Z"
         id="path4994"
         inkscape:connector-curvature="0" />
    </marker>
    <marker
       inkscape:isstock="true"
       style="overflow:visible"
       id="marker4922"
       refX="0"
       refY="0"
       orient="auto"
       inkscape:stockid="Arrow1Send">
      <path
         transform="matrix(-0.2,0,0,-0.2,-1.2,0)"
         style="fill:#000000;fill-opacity:1;fill-rule:evenodd;stroke:#000000;stroke-width:1pt;stroke-opacity:1"
         d="M 0,0 5,-5 -12.5,0 5,5 0,0 Z"
         id="path4924"
         inkscape:connector-curvature="0" />
    </marker>
    <marker
       inkscape:isstock="true"
       style="overflow:visible"
       id="marker4790"
       refX="0"
       refY="0"
       orient="auto"
       inkscape:stockid="Arrow1Send">
      <path
         transform="matrix(-0.2,0,0,-0.2,-1.2,0)"
         style="fill:#000000;fill-opacity:1;fill-rule:evenodd;stroke:#000000;stroke-width:1pt;stroke-opacity:1"
         d="M 0,0 5,-5 -12.5,0 5,5 0,0 Z"
         id="path4792"
         inkscape:connector-curvature="0" />
    </marker>
    <marker
       inkscape:isstock="true"
       style="overflow:visible"
       id="marker4682"
       refX="0"
       refY="0"
       orient="auto"
       inkscape:stockid="Arrow1Sstart">
      <path
         transform="matrix(0.2,0,0,0.2,1.2,0)"
         style="fill:#000000;fill-opacity:1;fill-rule:evenodd;stroke:#000000;stroke-width:1pt;stroke-opacity:1"
         d="M 0,0 5,-5 -12.5,0 5,5 0,0 Z"
         id="path4684"
         inkscape:connector-curvature="0" />
    </marker>
    <marker
       inkscape:isstock="true"
       style="overflow:visible"
       id="marker4642"
       refX="0"
       refY="0"
       orient="auto"
       inkscape:stockid="Arrow1Sstart">
      <path
         transform="matrix(0.2,0,0,0.2,1.2,0)"
         style="fill:#000000;fill-opacity:1;fill-rule:evenodd;stroke:#000000;stroke-width:1pt;stroke-opacity:1"
         d="M 0,0 5,-5 -12.5,0 5,5 0,0 Z"
         id="path4644"
         inkscape:connector-curvature="0" />
    </marker>
    <marker
       inkscape:isstock="true"
       style="overflow:visible"
       id="marker4608"
       refX="0"
       refY="0"
       orient="auto"
       inkscape:stockid="Arrow1Sstart">
      <path
         transform="matrix(0.2,0,0,0.2,1.2,0)"
         style="fill:#000000;fill-opacity:1;fill-rule:evenodd;stroke:#000000;stroke-width:1pt;stroke-opacity:1"
         d="M 0,0 5,-5 -12.5,0 5,5 0,0 Z"
         id="path4610"
         inkscape:connector-curvature="0" />
    </marker>
    <marker
       inkscape:isstock="true"
       style="overflow:visible"
       id="marker4580"
       refX="0"
       refY="0"
       orient="auto"
       inkscape:stockid="Arrow1Sstart">
      <path
         transform="matrix(0.2,0,0,0.2,1.2,0)"
         style="fill:#000000;fill-opacity:1;fill-rule:evenodd;stroke:#000000;stroke-width:1pt;stroke-opacity:1"
         d="M 0,0 5,-5 -12.5,0 5,5 0,0 Z"
         id="path4582"
         inkscape:connector-curvature="0" />
    </marker>
    <marker
       inkscape:isstock="true"
       style="overflow:visible"
       id="marker4558"
       refX="0"
       refY="0"
       orient="auto"
       inkscape:stockid="Arrow1Sstart">
      <path
         transform="matrix(0.2,0,0,0.2,1.2,0)"
         style="fill:#000000;fill-opacity:1;fill-rule:evenodd;stroke:#000000;stroke-width:1pt;stroke-opacity:1"
         d="M 0,0 5,-5 -12.5,0 5,5 0,0 Z"
         id="path4560"
         inkscape:connector-curvature="0" />
    </marker>
    <marker
       inkscape:isstock="true"
       style="overflow:visible"
       id="marker9678-9"
       refX="0"
       refY="0"
       orient="auto"
       inkscape:stockid="Arrow2Mstart">
      <path
         inkscape:connector-curvature="0"
         transform="scale(0.6,0.6)"
         d="M 8.7185878,4.0337352 -2.2072895,0.01601326 8.7185884,-4.0017078 c -1.7454984,2.3720609 -1.7354408,5.6174519 -6e-7,8.035443 z"
         style="fill:#0061ff;fill-opacity:1;fill-rule:evenodd;stroke:#0061ff;stroke-width:0.625;stroke-linejoin:round;stroke-opacity:1"
         id="path9680-3" />
    </marker>
  </defs>
  <sodipodi:namedview
     id="base"
     pagecolor="#ffffff"
     bordercolor="#666666"
     borderopacity="1.0"
     inkscape:pageopacity="0.0"
     inkscape:pageshadow="2"
     inkscape:zoom="0.98994949"
     inkscape:cx="10.575231"
     inkscape:cy="342.24176"
     inkscape:document-units="px"
     inkscape:current-layer="layer1"
     showgrid="false"
     fit-margin-top="0"
     fit-margin-left="0"
     fit-margin-right="0"
     fit-margin-bottom="0"
     inkscape:window-width="1880"
     inkscape:window-height="1042"
     inkscape:window-x="40"
     inkscape:window-y="21"
     inkscape:window-maximized="1" />
  <metadata
     id="metadata7">
    <rdf:RDF>
      <cc:Work
         rdf:about="">
        <dc:format>image/svg+xml</dc:format>
        <dc:type
           rdf:resource="http://purl.org/dc/dcmitype/StillImage" />
        <dc:title></dc:title>
      </cc:Work>
    </rdf:RDF>
  </metadata>
  <g
     inkscape:label="Ebene 1"
     inkscape:groupmode="layer"
     id="layer1"
     transform="translate(-59.598999,-221.00665)">
    <ellipse
       style="fill:#ffffff;fill-opacity:1;stroke:#000000;stroke-width:7.08661413;stroke-miterlimit:4;stroke-dasharray:none;stroke-dashoffset:0;stroke-opacity:1"
       id="path3336"
       cx="389.28571"
       cy="429.50507"
       rx="210.71428"
       ry="111.42857" />
    <ellipse
       style="fill:none;fill-opacity:1;stroke:#000000;stroke-width:7.08661413;stroke-miterlimit:4;stroke-dasharray:none;stroke-dashoffset:0;stroke-opacity:1"
       id="path3336-3"
       cx="390.57169"
       cy="420.8212"
       rx="171.13383"
       ry="81.960335" />
    <ellipse
       style="fill:none;fill-opacity:1;stroke:#009c00;stroke-width:3;stroke-miterlimit:4;stroke-dasharray:none;stroke-dashoffset:0;stroke-opacity:1;marker-mid:url(#marker13922)"
       id="path4157"
       cx="573.57141"
       cy="422.07651"
       rx="167.57915"
       ry="351.15054" />
    <ellipse
       style="fill:none;fill-opacity:1;stroke:#009c00;stroke-width:3;stroke-miterlimit:4;stroke-dasharray:none;stroke-dashoffset:0;stroke-opacity:1;marker-start:url(#marker9990)"
       id="path4157-6"
       cx="193.14285"
       cy="419.79077"
       rx="167.57915"
       ry="351.15054" />
    <ellipse
       style="fill:none;fill-opacity:1;stroke:#009c00;stroke-width:2.66700006;stroke-miterlimit:4;stroke-dasharray:none;stroke-dashoffset:0;stroke-opacity:1;marker-mid:url(#marker7942)"
       id="path4157-7"
       cx="587.71411"
       cy="420.79102"
       rx="118.23582"
       ry="178.23572" />
    <ellipse
       style="fill:none;fill-opacity:1;stroke:#009c00;stroke-width:2.66650176;stroke-miterlimit:4;stroke-dasharray:none;stroke-dashoffset:0;stroke-opacity:1;marker-start:url(#marker9782)"
       id="path4157-7-5"
       cx="185.42856"
       cy="420.64792"
       rx="118.23582"
       ry="178.23572" />
    <ellipse
       style="fill:#ffffff;fill-opacity:1;stroke:#ffffff;stroke-width:2.43039346;stroke-miterlimit:4;stroke-dasharray:none;stroke-dashoffset:0;stroke-opacity:1"
       id="path4237"
       cx="542.66241"
       cy="483.14825"
       rx="18.004478"
       ry="12.861183" />
    <ellipse
       style="fill:#ffffff;fill-opacity:1;stroke:#ffffff;stroke-width:2.52719879;stroke-miterlimit:4;stroke-dasharray:none;stroke-dashoffset:0;stroke-opacity:1"
       id="path4237-6"
       cx="486.34619"
       cy="508.53354"
       rx="17.956074"
       ry="13.943626" />
    <ellipse
       style="fill:#ffffff;fill-opacity:1;stroke:#ffffff;stroke-width:2.55929708;stroke-miterlimit:4;stroke-dasharray:none;stroke-dashoffset:0;stroke-opacity:1"
       id="path4237-2"
       cx="413.36295"
       cy="521.0481"
       rx="18.15056"
       ry="14.146849" />
    <ellipse
       style="fill:#ffffff;fill-opacity:1;stroke:#ffffff;stroke-width:2.61359048;stroke-miterlimit:4;stroke-dasharray:none;stroke-dashoffset:0;stroke-opacity:1"
       id="path4237-9"
       cx="353.79352"
       cy="519.87738"
       rx="18.193592"
       ry="14.71855" />
    <ellipse
       style="fill:#ffffff;fill-opacity:1;stroke:#ffffff;stroke-width:2.59139872;stroke-miterlimit:4;stroke-dasharray:none;stroke-dashoffset:0;stroke-opacity:1"
       id="path4237-1"
       cx="289.27618"
       cy="507.04391"
       rx="18.309826"
       ry="14.377803" />
    <ellipse
       style="fill:#ffffff;fill-opacity:1;stroke:#ffffff;stroke-width:2.54813147;stroke-miterlimit:4;stroke-dasharray:none;stroke-dashoffset:0;stroke-opacity:1"
       id="path4237-27"
       cx="241.36882"
       cy="485.28403"
       rx="19.703068"
       ry="12.918679" />
    <ellipse
       style="fill:none;fill-opacity:1;stroke:#ff0000;stroke-width:3.31983256;stroke-miterlimit:4;stroke-dasharray:none;stroke-dashoffset:0;stroke-opacity:1;marker-mid:url(#marker9678)"
       id="path3336-3-0"
       cx="389.93231"
       cy="425.93039"
       rx="193.99054"
       ry="97.810127" />
    <text
       xml:space="preserve"
       style="font-style:normal;font-weight:normal;font-size:40px;line-height:125%;font-family:sans-serif;letter-spacing:0px;word-spacing:0px;fill:none;fill-opacity:1;stroke:none;stroke-width:1px;stroke-linecap:butt;stroke-linejoin:miter;stroke-opacity:1"
       x="538.57141"
       y="433.79077"
       id="text15083"
       sodipodi:linespacing="125%"><tspan
         sodipodi:role="line"
         id="tspan15085"
         x="538.57141"
         y="433.79077"
         style="fill:none;fill-opacity:1">J</tspan></text>
    <text
       xml:space="preserve"
       style="font-style:normal;font-weight:normal;font-size:40px;line-height:125%;font-family:sans-serif;letter-spacing:0px;word-spacing:0px;fill:#009c00;fill-opacity:1;stroke:none;stroke-width:1px;stroke-linecap:butt;stroke-linejoin:miter;stroke-opacity:1"
       x="413.14005"
       y="436.62198"
       id="text15297"
       sodipodi:linespacing="125%"><tspan
         sodipodi:role="line"
         id="tspan15299"
         x="413.14005"
         y="436.62198"
         style="fill:#009c00;fill-opacity:1;stroke:#009c00;stroke-opacity:1">B</tspan></text>
    <ellipse
       style="fill:none;fill-opacity:1;stroke:#0061ff;stroke-width:4.91931438;stroke-miterlimit:4;stroke-dasharray:none;stroke-dashoffset:0;stroke-opacity:1;marker-mid:url(#marker9678-9)"
       id="path3336-3-0-6"
       cx="396.15961"
       cy="423.55411"
       rx="287.45441"
       ry="144.93465" />
    <ellipse
       style="fill:#009c00;fill-opacity:1;stroke:#009c00;stroke-width:2.66700006;stroke-miterlimit:4;stroke-dasharray:none;stroke-dashoffset:0;stroke-opacity:1"
       id="path16464"
       cx="0"
       cy="0"
       rx="0.28410539"
       ry="1.3258252" />
    <path
       style="fill:none;fill-rule:evenodd;stroke:#009c00;stroke-width:2.4000001;stroke-linecap:butt;stroke-linejoin:miter;stroke-miterlimit:4;stroke-dasharray:none;stroke-opacity:1"
       d="m 265.57539,290.29681 c 0.0891,0.0271 0.12428,0.10574 0.1894,0.15784 0.0411,0.0329 0.0859,0.061 0.12627,0.0947 0.0229,0.019 0.0365,0.0498 0.0631,0.0631 0.0188,0.009 0.0429,-0.006 0.0631,0 0.0545,0.0156 0.10605,0.0401 0.15783,0.0631 0.49809,0.22137 -0.18529,-0.0769 0.22097,0.12627 0.009,0.005 0.0222,-0.005 0.0316,0 0.0133,0.007 0.0183,0.0249 0.0316,0.0316 0.0298,0.0149 0.0649,0.0167 0.0947,0.0316 0.0146,0.007 0.1077,0.1077 0.12627,0.12627 0.0631,0.0631 0.12627,0.12627 0.1894,0.1894 0.0166,0.0166 0.0863,0.0778 0.0947,0.0947 0.005,0.009 -0.005,0.0222 0,0.0316 0.0155,0.0311 0.11073,0.0952 0.12626,0.12627 0.005,0.009 -0.007,0.0241 0,0.0316 0.0166,0.0166 0.0408,0.0241 0.0631,0.0316 0.01,0.003 0.0241,-0.007 0.0316,0 0.0268,0.0268 0.0404,0.0643 0.0631,0.0947 0.009,0.0119 0.0249,0.0183 0.0316,0.0316 0.005,0.009 -0.003,0.0214 0,0.0316 0.008,0.0323 0.0167,0.0649 0.0316,0.0947 0.007,0.0133 0.0239,0.0188 0.0316,0.0316 0.0242,0.0404 0.0389,0.0859 0.0631,0.12627 0.021,0.035 0.11452,0.0829 0.12627,0.0947 0.007,0.007 -0.003,0.0214 0,0.0316 0.008,0.0323 0.0235,0.0624 0.0316,0.0947 0.003,0.0102 -0.005,0.0222 0,0.0316 0.007,0.0133 0.0233,0.0192 0.0316,0.0316 0.0647,0.0971 -0.002,0.0292 0.0631,0.12626 0.008,0.0124 0.0233,0.0192 0.0316,0.0316 0.0131,0.0196 0.0241,0.0408 0.0316,0.0631 0.003,0.01 -0.007,0.0241 0,0.0316 0.0166,0.0166 0.0436,0.0185 0.0631,0.0316 0.10223,0.0682 -0.0131,-0.004 0.0316,0.0631 0.0165,0.0248 0.0421,0.0421 0.0631,0.0631 0.0105,0.0105 0.0249,0.0183 0.0316,0.0316 0.009,0.0188 -0.009,0.0443 0,0.0631 0.007,0.0133 0.0249,0.0183 0.0316,0.0316 0.005,0.009 -0.003,0.0214 0,0.0316 0.008,0.0323 0.0167,0.0649 0.0316,0.0947 0.0133,0.0266 0.0453,0.0393 0.0631,0.0631 0.0228,0.0303 0.0436,0.0622 0.0631,0.0947 0.0695,0.0159 0.0167,0.0649 0.0316,0.0947 0.007,0.0133 0.0233,0.0192 0.0316,0.0316 0.10632,0.15947 2.5e-4,7.3e-4 0.0316,0.0947 0.0762,0.22866 -0.009,-0.0498 0.0631,0.0947 0.005,0.009 0,0.021 0,0.0316 0.0105,0.0316 0.0108,0.0687 0.0316,0.0947 0.0592,0.074 0.0867,0.0353 0.12627,0.0947 0.0131,0.0196 0.0241,0.0408 0.0316,0.0631 0.003,0.01 -0.006,0.0228 0,0.0316 0.0165,0.0248 0.0466,0.0384 0.0631,0.0631 0.006,0.009 -0.003,0.0216 0,0.0316 0.0762,0.22866 -0.009,-0.0498 0.0631,0.0947 0.0318,0.0637 0.0218,0.10267 0.0631,0.15784 0.0179,0.0238 0.0466,0.0384 0.0631,0.0631 0.0261,0.0392 0.0457,0.0826 0.0631,0.12627 0.004,0.01 -0.006,0.0228 0,0.0316 0.0165,0.0248 0.0421,0.0421 0.0631,0.0631 0.0105,0.0105 0.0249,0.0183 0.0316,0.0316 0.005,0.009 -0.003,0.0216 0,0.0316 0.007,0.0223 0.0211,0.0421 0.0316,0.0631 0.0105,0.0211 0.0174,0.0443 0.0316,0.0631 0.0292,0.0389 0.0995,0.0861 0.12626,0.12627 0.10632,0.15947 2.5e-4,7.3e-4 0.0316,0.0947 0.0762,0.22865 -0.009,-0.0498 0.0631,0.0947 0.005,0.009 -0.005,0.0222 0,0.0316 -0.0175,0.0782 0.0712,0.0792 0.0947,0.12627 0.005,0.009 -0.005,0.0221 0,0.0316 0.007,0.0133 0.0269,0.0175 0.0316,0.0316 0.007,0.02 -0.0108,0.0451 0,0.0631 0.0306,0.051 0.0842,0.0842 0.12626,0.12627 0.0105,0.0105 0.0233,0.0192 0.0316,0.0316 0.0484,0.0726 0.0147,0.0853 0.0631,0.15784 0.028,0.042 0.0967,0.0651 0.12627,0.0947 0.0775,0.0113 0.0131,0.067 0.0316,0.0947 0.1656,0.1656 0.001,-0.0286 0.0631,0.12627 0.009,0.0233 0.0607,0.10073 0.0947,0.12627 0.0303,0.0228 0.0679,0.0363 0.0947,0.0631 0.007,0.007 -0.006,0.0228 0,0.0316 0.0165,0.0248 0.0453,0.0393 0.0631,0.0631 0.0141,0.0188 0.021,0.0421 0.0316,0.0631 0.0105,0.0211 0.0241,0.0408 0.0316,0.0631 0.003,0.01 -0.005,0.0222 0,0.0316 0.007,0.0133 0.0249,0.0183 0.0316,0.0316 0.0149,0.0298 0.0167,0.0649 0.0316,0.0947 0.0145,0.0289 0.0716,0.0555 0.0947,0.0631 0.01,0.003 0.0257,-0.009 0.0316,0 0.0962,0.0223 0.0122,0.0875 0.0316,0.12627 0.007,0.0133 0.0249,0.0183 0.0316,0.0316 0.005,0.009 -0.005,0.0222 0,0.0316 0.0189,0.0379 0.0758,0.0568 0.0947,0.0947 0.005,0.009 -0.005,0.0222 0,0.0316 0.0133,0.0266 0.0498,0.0365 0.0631,0.0631 0.005,0.009 -0.007,0.0241 0,0.0316 0.0166,0.0166 0.0408,0.0241 0.0631,0.0316 0.01,0.003 0.0257,-0.009 0.0316,0 0.0962,0.0224 0.0122,0.0875 0.0316,0.12627 0.007,0.0133 0.0233,0.0192 0.0316,0.0316 0.0696,0.0159 0.0167,0.0649 0.0316,0.0947 0.007,0.0133 0.0249,0.0182 0.0316,0.0316 0.005,0.009 -0.003,0.0216 0,0.0316 0.0762,0.22866 -0.009,-0.0498 0.0631,0.0947 0.0464,0.0929 -0.0731,-0.0416 0.0316,0.0631"
       id="path16472"
       inkscape:connector-curvature="0" />
    <path
       style="fill:none;fill-rule:evenodd;stroke:#009c00;stroke-width:3.20000005;stroke-linecap:butt;stroke-linejoin:miter;stroke-miterlimit:4;stroke-dasharray:none;stroke-opacity:1"
       d="m 346.07143,276.69256 c 0.0991,0.13114 0.0727,0.30363 0.13393,0.44643 0.0211,0.0493 0.0723,0.083 0.0893,0.13393 0.0141,0.0423 -0.009,0.0901 0,0.13393 0.007,0.0326 0.0381,0.0566 0.0446,0.0893 0.009,0.0438 -0.023,0.0957 0,0.13393 0.0276,0.046 0.096,0.0514 0.13393,0.0893 0.0107,0.0107 -0.008,0.14654 0,0.17857 0.0929,0.37158 -0.003,-0.0539 0.0893,0.22321 0.009,0.0282 -0.009,0.0611 0,0.0893 0.0105,0.0316 0.0341,0.0577 0.0447,0.0893 0.009,0.0282 -0.009,0.0611 0,0.0893 0.10778,0.32336 -0.0129,-0.0704 0.0893,0.13393 0.007,0.0133 -0.004,0.0302 0,0.0446 0.0114,0.0456 0.0272,0.0902 0.0446,0.13393 0.0124,0.0309 0.0366,0.057 0.0446,0.0893 0.0144,0.0577 -0.0221,0.12331 0,0.17858 0.0199,0.0498 0.0653,0.0859 0.0893,0.13392 0.0211,0.0421 0.0332,0.0883 0.0447,0.13393 0.007,0.0289 -0.0133,0.0627 0,0.0893 0.009,0.0188 0.0395,0.0242 0.0446,0.0446 0.0271,0.0711 -0.018,0.15103 0,0.22322 0.008,0.0323 0.0298,0.0595 0.0446,0.0893 0.0149,0.0446 0.0354,0.0878 0.0446,0.13393 0.006,0.0292 -0.009,0.061 0,0.0893 0.007,0.02 0.0298,0.0298 0.0446,0.0446 0.0149,0.0446 0.0354,0.0878 0.0446,0.13393 0.006,0.0292 -0.0133,0.0627 0,0.0893 0.12886,0.25772 0.0689,-0.10175 0.13393,0.22322 0.006,0.0292 0,0.0595 0,0.0893 0.0149,0.0298 0.0341,0.0577 0.0446,0.0893 0.009,0.0282 -0.006,0.0601 0,0.0893 0.012,0.0602 0.0326,0.11841 0.0446,0.17858 0.003,0.0146 -0.007,0.0313 0,0.0446 0.009,0.0188 0.0352,0.0258 0.0446,0.0446 0.0148,0.0296 -0.0125,0.14116 0,0.17857 0.0105,0.0316 0.0341,0.0577 0.0446,0.0893 0.005,0.0141 -0.007,0.0313 0,0.0446 0.009,0.0188 0.038,0.0247 0.0446,0.0446 0.009,0.0282 0,0.0595 0,0.0893 0,0.0149 -0.007,0.0313 0,0.0446 0.009,0.0188 0.038,0.0247 0.0447,0.0447 0.0248,0.0744 -0.0372,0.1488 0,0.22321 0.0149,0.0298 0.0708,0.017 0.0893,0.0446 0.0165,0.0248 0,0.0595 0,0.0893 0,0.0595 0,0.11905 0,0.17857 0,0.23809 0,0.47619 0,0.71429 0,0.0893 0,0.17857 0,0.26785 0,0.0201 -0.007,0.12034 0,0.13393 0.009,0.0188 0.0395,0.0242 0.0446,0.0446 0.0154,0.0614 -0.0148,0.16407 0,0.22322 0.0114,0.0457 0.0332,0.0883 0.0446,0.13393 0.007,0.0289 -0.0133,0.0627 0,0.0893 0.009,0.0188 0.0352,0.0258 0.0446,0.0447 0.0133,0.0266 -0.009,0.061 0,0.0893 0.0105,0.0316 0.0341,0.0577 0.0446,0.0893 0.005,0.0141 0,0.0298 0,0.0446 0,0.0298 0,0.0595 0,0.0893 0,0.0744 0,0.1488 0,0.22321 0,0.0149 0,0.0298 0,0.0446 0,0.0149 -0.007,0.0313 0,0.0447 0.009,0.0188 0.0352,0.0258 0.0447,0.0446 0.007,0.0133 -0.007,0.0313 0,0.0446 0.009,0.0188 0.0352,0.0258 0.0446,0.0446 0.007,0.0133 0,0.0298 0,0.0446 0,0.0149 0,0.0298 0,0.0446 0,0.0744 0,0.14881 0,0.22321 0,0.10417 0,0.20834 0,0.3125 0,0.0394 -0.01,0.0959 0,0.13393 0.0114,0.0457 0.0332,0.0883 0.0446,0.13393 0.008,0.033 0,0.19137 0,0.22322 0,0.0149 0,0.0298 0,0.0446 0,0.0149 -0.008,0.0323 0,0.0446 0.035,0.0525 0.0893,0.0893 0.13393,0.13393"
       id="path16474"
       inkscape:connector-curvature="0" />
    <path
       style="fill:none;fill-rule:evenodd;stroke:#009c00;stroke-width:3.20000005;stroke-linecap:butt;stroke-linejoin:miter;stroke-miterlimit:4;stroke-dasharray:none;stroke-opacity:1"
       d="m 421.47322,274.28185 c -0.0298,0.0595 -0.0595,0.11904 -0.0893,0.17857 -0.0298,0.0298 -0.0676,0.0532 -0.0893,0.0893 -0.0322,0.0537 -0.0747,0.26872 -0.0893,0.3125 -0.0253,0.076 -0.0663,0.14646 -0.0893,0.22322 -0.0218,0.0727 -0.0262,0.1496 -0.0446,0.22321 -0.0263,0.1051 -0.068,0.20627 -0.0893,0.3125 -0.0235,0.11765 -0.0177,0.24024 -0.0446,0.35714 -0.0702,0.30443 -0.0898,0.13542 -0.17857,0.40179 -0.028,0.084 -0.0856,0.48424 -0.0893,0.53571 -0.0117,0.16328 0,0.32738 0,0.49108 0,0.11904 0.0148,0.23901 0,0.35714 -0.0152,0.12176 -0.0719,0.23566 -0.0893,0.35714 -0.0126,0.0884 0,0.17857 0,0.26786 0,0.35704 0,0.17867 0,0.53571 0,0.0893 0.0459,0.1913 0,0.26786 -0.36469,0.60781 -0.24786,-0.33855 -0.35714,0.53571 -0.0148,0.11813 0,0.2381 0,0.35715 0,0.22321 0,0.44643 0,0.66964 0,0.14881 0,0.29762 0,0.44643 0,0.0298 0,0.0595 0,0.0893 0,0.0446 -0.0108,0.0906 0,0.13393 0.005,0.0204 0.0352,0.0258 0.0446,0.0447 0.007,0.0133 0,0.0298 0,0.0446 0,0.0595 0,0.11905 0,0.17857 0,0.0298 0.006,0.0601 0,0.0893 -0.009,0.0461 -0.0354,0.0878 -0.0446,0.13392 -0.006,0.0292 0,0.0595 0,0.0893 0,0.0446 0,0.0893 0,0.13393 0,0.19345 0,0.3869 0,0.58036 0,0.19345 0,0.3869 0,0.58035 0,0.0744 0,0.14881 0,0.22322 0,0.0595 0.008,0.11964 0,0.17857 -0.0241,0.16836 -0.0825,0.13243 -0.13393,0.3125 -0.0123,0.0429 0,0.0893 0,0.13393 0,0.0595 0.0117,0.1202 0,0.17857 -0.004,0.0206 -0.0338,0.0266 -0.0446,0.0446 -0.0342,0.0571 -0.0659,0.11626 -0.0893,0.17857 -0.0519,0.1383 -0.0446,0.15076 -0.0446,0.26786 0,0.0298 0,0.0595 0,0.0893 0,0.0149 0.004,0.0302 0,0.0446 -0.078,0.31206 -0.006,-0.0708 -0.13393,0.3125 -0.009,0.0282 0.009,0.0611 0,0.0893 -0.007,0.02 -0.0395,0.0242 -0.0446,0.0446 -0.0108,0.0433 0.0123,0.091 0,0.13393 -0.0183,0.064 -0.0595,0.11904 -0.0893,0.17857 -0.0149,0.0298 -0.0262,0.0616 -0.0446,0.0893 -0.0117,0.0175 -0.038,0.0247 -0.0447,0.0447 -0.024,0.072 -0.0322,0.14836 -0.0446,0.22321 -0.0182,0.10896 0.0785,0.018 -0.0446,0.22321 -0.0171,0.0285 -0.0769,0.0138 -0.0893,0.0446 -0.0221,0.0553 0.0157,0.12114 0,0.17857 -0.0298,0.10933 -0.0952,0.20599 -0.13393,0.3125 -0.10968,0.30162 -0.0166,0.0715 -0.0446,0.26786 -0.0107,0.0751 -0.0262,0.1496 -0.0446,0.22321 -0.0525,0.2102 -0.12156,0.41596 -0.17857,0.625 -0.0162,0.0592 -0.0231,0.12112 -0.0447,0.17857 -0.0467,0.12463 -0.12914,0.23356 -0.17857,0.35714 -0.006,0.0138 0.005,0.0305 0,0.0446 -0.0105,0.0316 -0.0366,0.057 -0.0446,0.0893 -0.018,0.0722 0.0122,0.14982 0,0.22322 -0.008,0.0464 -0.0354,0.0878 -0.0446,0.13393 -0.0117,0.0584 0.0144,0.12082 0,0.17857 -0.008,0.0323 -0.0341,0.0577 -0.0447,0.0893 -0.0125,0.0374 0.0148,0.14899 0,0.17857 -0.009,0.0188 -0.0352,0.0258 -0.0446,0.0446 -0.007,0.0133 0.004,0.0302 0,0.0446 -0.0114,0.0456 -0.0354,0.0878 -0.0446,0.13393 -0.006,0.0292 0.007,0.0604 0,0.0893 -0.008,0.0323 -0.0341,0.0577 -0.0446,0.0893 -0.005,0.0141 0,0.0298 0,0.0446 0,0.10417 0,0.20834 0,0.3125 0,0.11905 0,0.2381 0,0.35715 0,0.0298 0.0111,0.0616 0,0.0893 -0.0199,0.0498 -0.0653,0.0859 -0.0893,0.13393 -0.0102,0.0203 0.002,0.21348 0,0.22321 -0.005,0.0204 -0.0352,0.0258 -0.0446,0.0446 -0.007,0.0133 0,0.0298 0,0.0446 0,0.0446 0,0.0893 0,0.13393 0,0.0744 0,0.14881 0,0.22321 0,0.0527 0.009,0.24131 0,0.26786 -0.007,0.02 -0.038,0.0247 -0.0447,0.0446 -0.007,0.0204 0.01,0.15871 0,0.17857 -0.009,0.0188 -0.0352,0.0258 -0.0446,0.0446 -0.007,0.0133 0,0.0298 0,0.0446 0,0.0298 0.009,0.061 0,0.0893 -0.007,0.02 -0.0352,0.0258 -0.0446,0.0446 -0.014,0.0281 0.014,0.15051 0,0.17857 -0.009,0.0188 -0.0352,0.0258 -0.0446,0.0446 -0.0133,0.0266 0.0133,0.0627 0,0.0893 -0.009,0.0188 -0.0298,0.0298 -0.0446,0.0446"
       id="path16482"
       inkscape:connector-curvature="0" />
    <path
       style="fill:none;fill-rule:evenodd;stroke:#009c00;stroke-width:3;stroke-linecap:butt;stroke-linejoin:miter;stroke-miterlimit:4;stroke-dasharray:none;stroke-opacity:1"
       d="m 509.81136,286.72971 c -0.0749,0.14247 -0.21576,0.22734 -0.31567,0.34724 -0.0243,0.0291 -0.0421,0.0631 -0.0631,0.0947 -0.0211,0.0316 -0.0462,0.0608 -0.0631,0.0947 -0.0149,0.0298 -0.0122,0.0676 -0.0316,0.0947 -0.0346,0.0484 -0.0842,0.0842 -0.12627,0.12627 -0.0421,0.0526 -0.0876,0.10264 -0.12627,0.15784 -0.13059,0.18656 -0.0646,0.15173 -0.22097,0.34724 -0.0782,0.0978 -0.14097,0.11199 -0.18941,0.22097 -0.027,0.0608 -0.0456,0.1252 -0.0631,0.1894 -0.0141,0.0518 -0.01,0.10881 -0.0316,0.15784 -0.0799,0.17971 -0.11468,0.0825 -0.22097,0.25254 -0.023,0.0368 -0.0167,0.0855 -0.0316,0.12627 -0.0274,0.0753 -0.0659,0.14617 -0.0947,0.22097 -0.0336,0.0874 -0.0788,0.26022 -0.12627,0.34724 -0.0363,0.0666 -0.0816,0.12804 -0.12627,0.1894 -0.0396,0.0545 -0.0984,0.0965 -0.12627,0.15784 -0.22791,0.50142 0.2008,-0.13516 -0.12627,0.3788 -0.0362,0.0568 -0.0866,0.10335 -0.12626,0.15784 -0.14768,0.20305 -0.0931,0.16782 -0.25254,0.34724 -0.0396,0.0445 -0.0891,0.0798 -0.12627,0.12627 -0.0474,0.0592 -0.0789,0.13015 -0.12627,0.1894 -0.0372,0.0465 -0.0947,0.0758 -0.12627,0.12627 -0.023,0.0368 -0.0122,0.0875 -0.0316,0.12627 -0.0133,0.0266 -0.0484,0.0373 -0.0631,0.0631 -0.0281,0.0492 -0.0317,0.11068 -0.0631,0.15783 -0.16304,0.24457 -0.0969,0.006 -0.1894,0.25254 -0.0431,0.11506 -0.012,0.14914 -0.0947,0.25254 -0.0147,0.0184 -0.0436,0.0185 -0.0631,0.0316 -0.0725,0.0483 0.0135,0.018 -0.0631,0.0947 -0.0166,0.0166 -0.0436,0.0185 -0.0631,0.0316 -0.0124,0.008 -0.021,0.021 -0.0316,0.0316 -0.0105,0.0105 -0.0249,0.0183 -0.0316,0.0316 -0.0149,0.0298 -0.0167,0.0649 -0.0316,0.0947 -0.007,0.0133 -0.0233,0.0192 -0.0316,0.0316 -0.0131,0.0196 -0.0211,0.0421 -0.0316,0.0631 -0.0105,0.0211 -0.0241,0.0408 -0.0316,0.0631 -0.003,0.01 0.005,0.0221 0,0.0316 -0.0181,0.0362 -0.0659,0.0439 -0.0947,0.0631 -0.0124,0.008 -0.0211,0.021 -0.0316,0.0316 -0.0105,0.0105 -0.0233,0.0192 -0.0316,0.0316 -0.0162,0.0243 -0.0469,0.10199 -0.0631,0.12627 -0.008,0.0124 -0.0233,0.0192 -0.0316,0.0316 -0.0131,0.0196 -0.0149,0.0465 -0.0316,0.0631 -0.001,10e-4 -0.11827,0.0707 -0.12627,0.0947 -0.0456,0.13667 0.0603,-0.0116 -0.0316,0.12627 -0.0182,0.0272 -0.0701,0.07 -0.0947,0.0947 -0.0247,0.0246 -0.0675,0.0765 -0.0947,0.0947 -0.0196,0.013 -0.0408,0.0241 -0.0631,0.0316 -0.01,0.003 -0.0241,-0.007 -0.0316,0 -0.007,0.007 0.005,0.0222 0,0.0316 -0.0189,0.0379 -0.0758,0.0568 -0.0947,0.0947 -0.005,0.009 0.005,0.0222 0,0.0316 -0.007,0.0133 -0.0226,0.0197 -0.0316,0.0316 -0.0228,0.0303 -0.0404,0.0644 -0.0631,0.0947 -0.031,0.0414 -0.0773,0.0784 -0.12627,0.0947 -0.01,0.003 -0.0222,-0.005 -0.0316,0 -0.0133,0.007 -0.0192,0.0233 -0.0316,0.0316 -0.0196,0.0131 -0.0436,0.0185 -0.0631,0.0316 -0.0124,0.008 -0.021,0.021 -0.0316,0.0316 -0.0628,0.0628 -0.0847,0.0947 -0.1894,0.0947"
       id="path16484"
       inkscape:connector-curvature="0" />
    <path
       style="fill:none;fill-rule:evenodd;stroke:#009c00;stroke-width:3;stroke-linecap:butt;stroke-linejoin:miter;stroke-miterlimit:4;stroke-dasharray:none;stroke-opacity:1"
       d="m 290.29259,338.6263 c 0.0717,0.0746 -0.0971,0.21387 -0.0631,0.31567 0.0149,0.0446 0.0517,0.0806 0.0631,0.12627 0.0102,0.0408 -0.0102,0.0854 0,0.12627 0.0114,0.0457 0.0421,0.0842 0.0631,0.12627 0.0211,0.0421 0.037,0.0871 0.0631,0.12626 0.0165,0.0248 0.0498,0.0365 0.0631,0.0631 0.0188,0.0376 -0.0188,0.0886 0,0.12627 0.0339,0.0679 0.0807,0.1287 0.12627,0.1894 0.0357,0.0476 0.0997,0.073 0.12627,0.12627 0.0198,0.0397 -0.0198,0.21286 0,0.25254 0.0133,0.0266 0.0498,0.0365 0.0631,0.0631 0.0186,0.0373 -0.0145,0.14598 0,0.18941 0.15244,0.45731 -0.0182,-0.0995 0.12627,0.1894 0.009,0.0188 -0.009,0.0443 0,0.0631 0.0266,0.0532 0.0996,0.073 0.12627,0.12626 0.0188,0.0376 -0.0188,0.0886 0,0.12627 0.0133,0.0266 0.0498,0.0365 0.0631,0.0631 0.009,0.0188 -0.0149,0.0482 0,0.0631 0.0769,0.0769 0.14105,0.0296 0.1894,0.12627 0.009,0.0188 0,0.0421 0,0.0631 0.0211,0.0421 0.037,0.0871 0.0631,0.12626 0.033,0.0495 0.10744,0.0698 0.12626,0.12627 0.01,0.0289 -0.014,0.22445 0,0.25254 0.0266,0.0532 0.10745,0.0698 0.12627,0.12627 0.0133,0.0399 0,0.0842 0,0.12627 0,0.0211 -0.009,0.0443 0,0.0631 0.0289,0.0578 0.14327,0.11089 0.18941,0.12627 0.02,0.007 0.0482,-0.0149 0.0631,0 0.0149,0.0149 -0.007,0.0432 0,0.0631 0.0149,0.0446 0.0483,0.0816 0.0631,0.12627 0.0133,0.0399 -0.0133,0.0863 0,0.12627 0.13269,0.39808 -0.005,-0.27748 0.12627,0.3788 0.008,0.0413 -0.0133,0.0863 0,0.12627 0.0149,0.0446 0.0482,0.0816 0.0631,0.12627 0.007,0.02 -0.009,0.0443 0,0.0631 0.0133,0.0266 0.0537,0.0349 0.0631,0.0631 0.0133,0.0399 -0.008,0.085 0,0.12627 0.0131,0.0653 0.0501,0.12415 0.0631,0.1894 0.0156,0.0778 -0.0238,0.24439 0,0.31568 0.009,0.0282 0.0421,0.0421 0.0631,0.0631 0.0421,0.0421 0.0933,0.0767 0.12627,0.12627 0.0117,0.0175 -0.005,0.0427 0,0.0631 0.0161,0.0646 0.047,0.12485 0.0631,0.18941 0.0102,0.0408 -0.0188,0.0886 0,0.12627 0.0526,0.10525 0.12627,0.0285 0.12627,0.1894"
       id="path16486"
       inkscape:connector-curvature="0" />
    <path
       style="fill:none;fill-rule:evenodd;stroke:#009c00;stroke-width:3;stroke-linecap:butt;stroke-linejoin:miter;stroke-miterlimit:4;stroke-dasharray:none;stroke-opacity:1"
       d="m 354.94235,326.75701 c -0.0211,0.0842 -0.0461,0.16745 -0.0631,0.25254 -0.0124,0.0619 0,0.12626 0,0.1894 0,0.23149 0,0.46299 0,0.69448 0,0.16836 0,0.33672 0,0.50508 0,0.0421 0,0.0842 0,0.12626 0,0.0211 -0.007,0.0432 0,0.0631 0.0149,0.0446 0.0483,0.0816 0.0631,0.12627 0.0123,0.0369 0,0.43491 0,0.50507 0,0.0211 0,0.0421 0,0.0631 0,0.021 -0.009,0.0443 0,0.0631 0.0133,0.0266 0.0498,0.0365 0.0631,0.0631 0.009,0.0188 0,0.0421 0,0.0631 0,0.0434 -0.0122,0.34205 0,0.37881 0.0149,0.0446 0.0517,0.0806 0.0631,0.12627 0.012,0.048 0,0.2628 0,0.31567 0,0.0211 -0.007,0.0432 0,0.0631 0.0149,0.0446 0.0482,0.0816 0.0631,0.12627 0.007,0.02 0,0.0421 0,0.0631 0,0.0421 0,0.0842 0,0.12627 0,0.12627 0,0.25254 0,0.37881 0,0.021 0,0.0421 0,0.0631 0,0.0211 -0.009,0.0443 0,0.0631 0.0133,0.0266 0.0498,0.0365 0.0631,0.0631 0.009,0.0188 0,0.0421 0,0.0631 0,0.0353 -0.0124,0.27842 0,0.31568 0.0725,0.21763 0.0631,0.0468 0.0631,0.1894"
       id="path16488"
       inkscape:connector-curvature="0" />
    <path
       style="fill:none;fill-rule:evenodd;stroke:#009c00;stroke-width:3;stroke-linecap:butt;stroke-linejoin:miter;stroke-miterlimit:4;stroke-dasharray:none;stroke-opacity:1"
       d="m 412.33164,325.68372 c 0,0.27358 0,0.54716 0,0.82074 0,0.0631 0.0153,0.12816 0,0.18941 -0.0114,0.0457 -0.0482,0.0816 -0.0631,0.12627 -0.0177,0.0532 0.0188,0.27808 0,0.31567 -0.0133,0.0266 -0.0498,0.0365 -0.0631,0.0631 -0.009,0.0188 0,0.0421 0,0.0631 0,0.021 0,0.0421 0,0.0631 0,0.10523 0,0.21045 0,0.31568 0,0.021 0.009,0.0443 0,0.0631 -0.0133,0.0266 -0.0498,0.0365 -0.0631,0.0631 -0.009,0.0188 0,0.0421 0,0.0631 0,0.0421 0,0.0842 0,0.12627 0,0.14263 0.009,-0.0282 -0.0631,0.1894 -0.0187,0.056 0.0207,0.27433 0,0.31568 -0.0339,0.0679 -0.0807,0.1287 -0.12626,0.1894 -0.0179,0.0238 -0.0498,0.0365 -0.0631,0.0631 -0.009,0.0188 0,0.0421 0,0.0631 0,0.021 0,0.0421 0,0.0631 0,0.0645 0.0102,0.41127 0,0.44194 -0.0188,0.0565 -0.10744,0.0698 -0.12627,0.12627 -0.0108,0.0325 0,0.37516 0,0.44195 0,0.021 0,0.0421 0,0.0631 0,0.021 0.009,0.0443 0,0.0631 -0.0266,0.0532 -0.0997,0.073 -0.12627,0.12627 -0.01,0.0192 0,0.16097 0,0.18941 0,0.16836 0,0.33671 0,0.50507 0,0.0439 0.0114,0.29284 0,0.31568 -0.0133,0.0266 -0.0498,0.0365 -0.0631,0.0631 -0.01,0.0192 0,0.16097 0,0.1894 0,0.0266 0.009,0.36003 0,0.37881 -0.0133,0.0266 -0.0421,0.0421 -0.0631,0.0631"
       id="path16501"
       inkscape:connector-curvature="0" />
    <path
       style="fill:none;fill-rule:evenodd;stroke:#009c00;stroke-width:3;stroke-linecap:butt;stroke-linejoin:miter;stroke-miterlimit:4;stroke-dasharray:none;stroke-opacity:1"
       d="m 483.29486,336.92166 c -0.0421,0.0842 -0.0842,0.16836 -0.12627,0.25254 0,0.0211 0.007,0.0432 0,0.0631 -0.0149,0.0446 -0.0457,0.0826 -0.0631,0.12626 -0.0247,0.0618 -0.0334,0.12988 -0.0631,0.18941 -0.12529,0.25059 -0.0199,-0.27904 -0.12627,0.25254 -0.0175,0.0877 0.0263,0.23675 0,0.31567 -0.024,0.072 -0.0923,0.12154 -0.12627,0.1894 -0.15258,0.30518 -0.015,0.0749 -0.0631,0.31568 0.15175,0.0375 -0.11639,0.22289 -0.12627,0.25253 -0.0133,0.0399 0.0102,0.0854 0,0.12627 -0.0114,0.0457 -0.0482,0.0816 -0.0631,0.12627 -0.007,0.02 0.005,0.0427 0,0.0631 -0.039,0.15603 -0.061,0.18504 -0.12627,0.31567 -0.0211,0.0421 -0.0483,0.0816 -0.0631,0.12627 -0.007,0.02 0.0149,0.0482 0,0.0631 -0.0333,0.0333 -0.093,0.0299 -0.12627,0.0631 -0.0149,0.0149 0.009,0.0443 0,0.0631 -0.0133,0.0266 -0.0498,0.0365 -0.0631,0.0631 -0.0188,0.0376 0.0133,0.0863 0,0.12627 -0.0149,0.0446 -0.0483,0.0816 -0.0631,0.12626 -0.007,0.02 0.009,0.0443 0,0.0631 -0.0133,0.0266 -0.0498,0.0365 -0.0631,0.0631 -0.0198,0.0397 0.0198,0.21286 0,0.25254 -0.0266,0.0532 -0.0996,0.073 -0.12627,0.12627 -0.0188,0.0377 0.0133,0.0863 0,0.12627 -0.0149,0.0446 -0.0482,0.0816 -0.0631,0.12627 -0.007,0.02 0,0.0421 0,0.0631 0,0.0595 0.012,0.27976 0,0.31568 -0.0181,0.0542 -0.1604,0.1166 -0.18941,0.12626 -0.02,0.007 -0.0482,-0.0149 -0.0631,0 -0.0149,0.0149 0,0.0421 0,0.0631 0,0.0631 0.0153,0.12815 0,0.1894 -0.007,0.0289 -0.0498,0.0365 -0.0631,0.0631 -0.0188,0.0376 0.0188,0.0886 0,0.12627 -0.0133,0.0266 -0.0498,0.0365 -0.0631,0.0631 -0.0207,0.0413 0.0187,0.25965 0,0.31567 -0.0725,0.21764 -0.0631,0.0468 -0.0631,0.18941"
       id="path16503"
       inkscape:connector-curvature="0" />
    <text
       xml:space="preserve"
       style="font-style:normal;font-weight:normal;font-size:40px;line-height:125%;font-family:sans-serif;letter-spacing:0px;word-spacing:0px;fill:#000000;fill-opacity:1;stroke:none;stroke-width:1px;stroke-linecap:butt;stroke-linejoin:miter;stroke-opacity:1"
       x="472.14288"
       y="600.93359"
       id="text16613"
       sodipodi:linespacing="125%"><tspan
         sodipodi:role="line"
         id="tspan16615"
         x="472.14288"
         y="600.93359"
         style="fill:#0061ff;fill-opacity:1;stroke:#0061ff;stroke-opacity:1">A</tspan></text>
    <rect
       style="fill:none;fill-opacity:1;stroke:none;stroke-width:7.08661413;stroke-miterlimit:4;stroke-dasharray:none;stroke-dashoffset:0;stroke-opacity:1"
       id="rect16617"
       width="653.56873"
       height="387.89859"
       x="59.598999"
       y="221.00665" />
  </g>
  <g
     inkscape:groupmode="layer"
     id="layer2"
     inkscape:label="Ebene 2"
     transform="translate(-59.598999,-221.00665)" />
</svg>
